<?xml version="1.0" encoding="UTF-8" standalone="no"?>
<!DOCTYPE svg PUBLIC "-//W3C//DTD SVG 1.1//EN" "http://www.w3.org/Graphics/SVG/1.1/DTD/svg11.dtd">
<svg width="100%" height="100%" viewBox="0 0 1920 1080" version="1.1" xmlns="http://www.w3.org/2000/svg" xmlns:xlink="http://www.w3.org/1999/xlink" xml:space="preserve" xmlns:serif="http://www.serif.com/" style="fill-rule:evenodd;clip-rule:evenodd;stroke-linecap:round;">
    <g>
        <clipPath id="_clip1">
            <rect x="0" y="0" width="1920" height="1080"/>
        </clipPath>
        <g clip-path="url(#_clip1)">
            <rect x="0" y="0" width="1920" height="1080" style="fill:url(#_Linear2);"/>
            <path d="M2282.54,0.211C2280,0.435 2276.33,0.602 2273.88,0.927C2264.7,2.561 2255.61,4.71 2246.66,7.364C2229.53,11.684 2212.03,14.348 2194.41,15.318C2188.5,14.147 2183.04,11.377 2178.65,7.314L2166.44,7.705C2150.68,-82.225 2102.02,-163.032 2029.7,-219.383C2031.73,-222.865 2035.63,-229.337 2036.71,-231.219C2034.52,-236.72 2034.6,-242.868 2036.93,-248.349C2046.21,-263.257 2056.93,-277.249 2068.93,-290.127C2075.58,-296.646 2081.84,-303.537 2087.68,-310.765C2089.05,-312.646 2090.82,-315.502 2092.22,-317.578C2094.84,-320.704 2096.78,-324.334 2097.9,-328.235C2099.02,-332.135 2099.3,-336.217 2098.72,-340.217C2098.14,-344.217 2096.72,-348.045 2094.54,-351.453C2092.36,-354.861 2089.48,-357.772 2086.08,-359.998C2082.68,-362.224 2078.84,-363.715 2074.81,-364.374C2070.78,-365.033 2066.64,-364.846 2062.68,-363.824C2058.71,-362.802 2054.99,-360.969 2051.77,-358.443C2048.56,-355.917 2045.91,-352.756 2043.99,-349.163C2042.58,-347.086 2040.63,-344.331 2039.41,-342.355C2034.87,-334.267 2030.81,-325.93 2027.25,-317.386C2019.88,-301.477 2010.97,-286.302 2000.64,-272.075C1996,-268.23 1990.39,-265.735 1984.42,-264.87L1976.27,-254.061C1895.44,-297.269 1801.25,-309.879 1711.19,-289.55C1709.76,-293.095 1707.33,-299.565 1706.6,-301.519C1700.86,-303.219 1696.04,-307.072 1693.17,-312.257C1687.25,-328.634 1682.96,-345.555 1680.37,-362.781C1679.37,-371.918 1677.84,-380.987 1675.79,-389.942C1675.16,-392.169 1674.01,-395.321 1673.24,-397.695C1672.4,-401.636 1670.73,-405.353 1668.35,-408.606C1665.96,-411.858 1662.9,-414.574 1659.38,-416.577C1655.85,-418.581 1651.93,-419.828 1647.88,-420.238C1643.82,-420.648 1639.71,-420.211 1635.82,-418.957C1631.93,-417.703 1628.34,-415.658 1625.29,-412.956C1622.24,-410.253 1619.78,-406.952 1618.09,-403.267C1616.4,-399.581 1615.51,-395.592 1615.47,-391.557C1615.43,-387.522 1616.25,-383.531 1617.87,-379.842C1617.95,-379.583 1618.09,-379.357 1618.18,-379.1C1618.88,-376.828 1619.65,-374.05 1620.36,-372.094C1623.93,-363.618 1627.98,-355.355 1632.5,-347.344C1640.42,-331.836 1646.79,-315.59 1651.52,-298.835C1651.7,-292.878 1650.16,-286.978 1647.07,-281.83L1650.13,-270.068C1633.73,-263.275 1617.82,-255.355 1602.52,-246.368C1538.22,-208.646 1486.64,-152.886 1454.4,-86.247C1450.3,-87.452 1446.21,-88.71 1442.14,-90.022C1437.18,-86.643 1431.09,-85.307 1425.19,-86.301C1408.5,-91.811 1392.42,-98.922 1377.15,-107.533C1369.3,-112.398 1361.17,-116.81 1352.79,-120.747C1350.65,-121.627 1347.45,-122.737 1345.08,-123.616C1338.18,-126.214 1330.61,-126.552 1323.46,-124.582C1319.21,-123.45 1315.27,-121.345 1311.98,-118.437C1308.68,-115.528 1306.12,-111.899 1304.5,-107.843C1302.02,-100.165 1302.7,-91.853 1306.41,-84.724C1310.11,-77.595 1316.53,-72.227 1324.26,-69.795L1324.79,-69.635C1327.07,-68.756 1329.9,-67.605 1331.97,-66.937C1340.92,-64.469 1350.01,-62.514 1359.19,-61.081C1376.45,-57.625 1393.32,-52.507 1409.55,-45.801C1414.35,-42.236 1418.04,-37.404 1420.19,-31.853L1431.57,-26.893C1405.91,61.282 1414.02,155.441 1454.33,237.526L1443.81,244.582C1442.32,250.319 1439.55,255.664 1435.71,260.229C1420.85,269.729 1405.09,277.781 1388.67,284.27C1379.85,287.331 1371.2,290.89 1362.79,294.93C1360.78,296.002 1358.07,297.69 1355.94,299.004L1355.71,299.134L1355.35,299.377C1351.68,301.109 1348.4,303.577 1345.74,306.623C1343.07,309.669 1341.07,313.227 1339.87,317.068C1338.67,320.909 1338.29,324.949 1338.76,328.93C1339.22,332.911 1340.53,336.744 1342.58,340.185C1344.64,343.627 1347.4,346.599 1350.7,348.913C1354,351.228 1357.75,352.832 1361.72,353.625C1365.69,354.417 1369.79,354.38 1373.76,353.516C1377.73,352.652 1381.49,350.979 1384.78,348.605L1385.17,348.408C1385.34,348.31 1385.47,348.168 1385.64,348.077C1387.76,346.825 1390.46,345.363 1392.29,344.18C1399.89,338.798 1407.18,332.996 1414.11,326.8C1427.71,315.582 1442.37,305.688 1457.88,297.258C1463.72,295.76 1469.85,295.906 1475.58,297.678L1487,291.754C1540.67,365.564 1619.97,417.183 1709.95,436.875L1708.74,450.399C1712.63,454.439 1715.22,459.531 1716.18,465.041C1714.28,482.812 1710.68,500.379 1705.41,517.5C1702.28,526.211 1699.67,535.088 1697.58,544.088C1697.14,546.499 1696.76,550.099 1696.39,552.592C1695.45,556.515 1695.35,560.582 1696.09,564.533C1696.83,568.483 1698.4,572.229 1700.71,575.53C1703.01,578.831 1705.99,581.613 1709.45,583.698C1712.91,585.783 1716.79,587.124 1720.82,587.635C1724.86,588.146 1728.96,587.816 1732.87,586.666C1736.78,585.516 1740.42,583.572 1743.53,580.958C1746.65,578.344 1749.19,575.118 1750.97,571.489C1752.76,567.859 1753.77,563.906 1753.92,559.883L1753.95,559.817L1753.93,559.752C1754.29,557.28 1754.88,554 1755.12,551.717C1755.64,542.523 1755.62,533.311 1755.06,524.129C1754.29,505.335 1756.19,486.505 1760.72,468.191C1763.04,464.074 1766.55,460.734 1770.81,458.606L1773.48,445.397C1865.71,450.095 1956.75,421.043 2029.21,363.786C2031.96,366.312 2037.15,371.167 2038.5,372.382C2044.44,371.453 2050.49,372.86 2055.36,376.303C2067.92,388.43 2079.23,401.751 2089.15,416.076C2094.07,423.855 2099.44,431.343 2105.24,438.504C2106.79,440.233 2109.16,442.595 2110.91,444.4C2113.38,447.581 2116.5,450.21 2120.07,452.119C2123.64,454.028 2127.58,455.174 2131.64,455.483C2135.7,455.793 2139.78,455.259 2143.63,453.916C2147.48,452.573 2151.01,450.451 2154,447.686C2156.98,444.921 2159.35,441.574 2160.95,437.861C2162.56,434.148 2163.36,430.151 2163.31,426.127C2163.26,422.102 2162.36,418.14 2160.66,414.494C2158.97,410.848 2156.52,407.6 2153.47,404.958C2151.72,403.144 2149.25,400.464 2147.49,398.773C2140.55,392.699 2133.25,387.03 2125.64,381.796C2111.66,371.263 2098.77,359.397 2087.14,346.367C2083.93,341.402 2082.83,335.373 2084.08,329.579C2081.16,326.578 2078.44,323.395 2075.93,320.049C2137.65,251.13 2171.79,162.398 2171.83,70.736C2175.59,70.146 2182.18,69.211 2184.33,68.966C2187.32,63.799 2192.22,59.974 2197.99,58.31C2215.51,56.103 2233.2,55.587 2250.79,56.768C2260.05,57.784 2269.36,58.27 2278.68,58.223C2280.85,58.097 2283.86,57.669 2286.32,57.428C2286.53,57.419 2286.72,57.441 2286.92,57.434L2287.34,57.365C2291.39,57.371 2295.41,56.541 2299.14,54.926C2302.87,53.312 2306.22,50.95 2308.98,47.991C2311.74,45.032 2313.85,41.541 2315.18,37.741C2316.51,33.941 2317.02,29.916 2316.68,25.923C2316.35,21.931 2315.17,18.058 2313.23,14.553C2311.29,11.048 2308.63,7.988 2305.42,5.568C2302.2,3.148 2298.51,1.422 2294.57,0.499C2290.63,-0.423 2286.53,-0.521 2282.54,0.211ZM1929.95,-193.115L1838.23,-72.324L1837.76,-72.385C1835.02,-68.673 1831.32,-65.756 1827.05,-63.944C1822.78,-62.132 1818.1,-61.493 1813.52,-62.095C1808.93,-62.697 1804.61,-64.517 1801.01,-67.362C1797.4,-70.206 1794.65,-73.97 1793.05,-78.251L1792.9,-78.274L1738.67,-218.576C1803.7,-231.059 1870.91,-222.112 1929.95,-193.113L1929.95,-193.115ZM1757.46,35.336L1802,21L1840.67,46.21L1844.44,91.961L1810.55,123.81L1764.32,117.708L1740.67,78.335L1757.46,35.336ZM1641.35,-181.727C1650.41,-187.031 1659.73,-191.876 1669.29,-196.243L1707.14,-50.424L1706.62,-49.945C1707.84,-45.537 1707.82,-40.877 1706.56,-36.461C1705.31,-32.044 1702.87,-28.037 1699.5,-24.865C1696.14,-21.692 1691.97,-19.475 1687.45,-18.447C1682.93,-17.42 1678.22,-17.622 1673.83,-19.031L1673.64,-18.828L1527.73,-63.736C1553.83,-112.673 1593.18,-153.541 1641.35,-181.727ZM1501.76,3.671L1641.37,64.541L1641.44,65.161C1645.69,66.947 1649.36,69.844 1652.06,73.545C1654.77,77.245 1656.39,81.609 1656.78,86.171C1657.16,90.734 1656.28,95.323 1654.23,99.451C1652.19,103.578 1649.05,107.089 1645.16,109.608L1645.2,110.109L1518.57,194.622C1491.64,134.766 1485.73,67.581 1501.77,3.678L1501.76,3.671ZM1729.34,211.492L1716.42,361.234C1652.47,344.803 1595.97,307.925 1555.68,256.322L1690.89,186.389L1691.24,186.628C1692.72,185.822 1694.28,185.164 1695.89,184.665C1699.92,183.434 1704.18,183.199 1708.3,183.982C1712.43,184.764 1716.28,186.54 1719.53,189.153C1722.78,191.765 1725.32,195.134 1726.93,198.96C1728.54,202.787 1729.17,206.955 1728.76,211.094L1729.34,211.492ZM1947.42,328.511C1899.37,356.905 1844.39,371.582 1788.62,370.897L1818.58,222.985L1818.7,222.947C1819.56,218.447 1821.63,214.249 1824.7,210.799C1827.76,207.35 1831.71,204.777 1836.12,203.353C1840.53,201.93 1845.23,201.709 1849.74,202.714C1854.24,203.718 1858.38,205.911 1861.71,209.061L1862.23,208.892L1973.09,311.703C1964.92,317.657 1956.36,323.264 1947.42,328.524L1947.42,328.511ZM2026.26,262.086L1927.41,146.836L1927.5,146.541C1923.19,141.64 1920.96,135.265 1921.3,128.746C1921.63,122.226 1924.49,116.064 1929.29,111.542C1931.76,109.192 1934.68,107.354 1937.87,106.139C1939.72,105.448 1941.65,104.979 1943.61,104.741L1943.76,104.365L2095.68,81.972C2093.38,147.803 2068.95,211.183 2026.26,262.092L2026.26,262.086ZM2089.35,10.38L1936.45,15.699L1936.14,15.159C1931.51,15.37 1926.92,14.339 1922.86,12.177C1918.8,10.014 1915.41,6.799 1913.07,2.875C1910.72,-1.05 1909.5,-5.539 1909.53,-10.115C1909.56,-14.691 1910.84,-19.184 1913.24,-23.117L1913.1,-23.378L1990.53,-153.587C2040.73,-111.161 2075.42,-53.591 2089.34,10.388L2089.35,10.38Z" style="fill:rgb(48,34,120);fill-opacity:0.75;fill-rule:nonzero;"/>
            <g id="planet_large.svg" transform="matrix(1,0,0,1,427.5,765.5)">
                <g opacity="0.5">
                    <g transform="matrix(1,0,0,1,-427.5,-314.5)">
                        <g>
                            <clipPath id="_clip3">
                                <rect x="0" y="0" width="855" height="628.11"/>
                            </clipPath>
                            <g clip-path="url(#_clip3)">
                                <path d="M2.45,276.709C1.62,278.319 0.8,279.939 0,281.569L0,272.619C0.81,273.989 1.63,275.349 2.45,276.709Z" style="fill:url(#_Linear4);fill-rule:nonzero;"/>
                                <path d="M855.058,487.999C855.058,489.399 855.048,490.799 855.038,492.199C855.028,493.339 855.018,494.469 854.998,495.609C854.978,497.279 854.938,498.939 854.898,500.599C854.858,501.979 854.818,503.359 854.768,504.739C854.748,505.449 854.728,506.159 854.698,506.859C854.658,507.899 854.618,508.949 854.568,509.989C854.528,511.029 854.478,512.069 854.418,513.109C854.388,513.809 854.348,514.509 854.308,515.209C854.228,516.709 854.138,518.209 854.038,519.709C853.948,521.119 853.848,522.539 853.748,523.949C853.658,525.199 853.558,526.449 853.468,527.699L853.468,527.779L853.438,528.169C853.398,528.609 853.368,529.049 853.328,529.479C853.318,529.549 853.318,529.609 853.308,529.679C853.228,530.719 853.128,531.759 853.038,532.789C852.888,534.489 852.718,536.199 852.548,537.899C852.408,539.279 852.258,540.659 852.108,542.029C851.948,543.509 851.778,544.989 851.598,546.459C851.418,547.939 851.238,549.409 851.048,550.879C850.918,551.929 850.778,552.979 850.638,554.029C850.538,554.769 850.438,555.509 850.328,556.249C850.168,557.389 850.008,558.529 849.838,559.679C849.668,560.839 849.488,561.989 849.318,563.149C849.308,563.189 849.308,563.229 849.298,563.269C849.188,563.959 849.078,564.649 848.968,565.339C848.558,567.909 848.128,570.479 847.678,573.049C847.558,573.699 847.448,574.359 847.328,575.019C847.218,575.669 847.098,576.319 846.968,576.979C846.948,577.109 846.918,577.249 846.898,577.389C846.658,578.699 846.408,579.999 846.158,581.309C846.018,581.989 845.888,582.679 845.748,583.369C845.558,584.369 845.358,585.359 845.148,586.349C845.038,586.909 844.918,587.459 844.808,588.009C844.798,588.049 844.788,588.099 844.778,588.139C844.618,588.949 844.448,589.749 844.268,590.549C844.088,591.399 843.898,592.239 843.718,593.089C843.568,593.819 843.408,594.539 843.238,595.249C842.138,600.179 840.958,605.079 839.698,609.959C839.448,610.929 839.198,611.909 838.938,612.879C838.428,614.819 837.908,616.759 837.368,618.699C837.038,619.879 836.708,621.059 836.368,622.239C836.288,622.509 836.218,622.779 836.138,623.049C835.818,624.179 835.488,625.309 835.148,626.429C835.108,626.569 835.068,626.709 835.028,626.849C834.988,626.989 835,627 835,627L831.559,627L601,476C688.99,440.57 765.15,379.02 819,302.5C841.99,359.13 855.068,423.109 855.068,487.999L855.058,487.999Z" style="fill:rgb(45,35,120);fill-rule:nonzero;"/>
                                <path d="M485.5,14.5C473,14 441,13.5 426.5,13.5C362.5,15.5 315.5,25.5 258.5,46C242,42.5 228,37 211.45,25.31C260.3,8.9 312.61,0 367,0C405.22,0 450.5,4.5 485.5,14.5Z" style="fill:rgb(50,38,115);fill-rule:nonzero;"/>
                                <path d="M819.5,303.69C765.65,380.21 689.99,442.07 602,477.5L566.16,452.26L167.16,381.26L20.5,242.5C44.83,202.89 74.23,167.57 108.5,136.5C192.88,206.25 301.97,248 420,248C531.83,248 633.87,209.42 716.16,146.15C759.58,190.87 795.67,244.99 819.5,303.69Z" style="fill:rgb(49,37,113);fill-rule:nonzero;"/>
                                <path d="M109.5,136.5C66,175.94 29.49,223.971 2.45,276.711C1.63,275.351 0.81,273.991 0,272.621L0,166.351C21.07,142.321 45.63,119.5 71,100C83.48,112.86 95.66,125.08 109.5,136.5Z" style="fill:rgb(49,36,110);fill-rule:nonzero;"/>
                                <path d="M717,147C634.71,210.27 531.83,249 420,249C301.97,249 193.5,218.5 108,137C151.35,97.7 202.6,65.77 258,44C308.53,61.71 363.42,71 420,71C476.58,71 524.15,61.91 573,45.5C626.2,70.67 676.49,105.26 717,147Z" style="fill:rgb(50,39,115);fill-rule:nonzero;"/>
                                <path d="M260.5,44C205.1,65.77 152.69,98.051 109.34,137.351C95.5,125.931 82.31,113.751 69.83,100.891C112.1,68.381 159.85,42.651 211.45,25.311C226.73,32.551 244.4,38.36 260.5,44Z" style="fill:rgb(50,38,114);fill-rule:nonzero;"/>
                                <path d="M575.54,46.69C526.69,63.1 474.379,74.5 419.999,74.5C365.619,74.5 309.08,62.37 258.55,44.66C313.82,22.94 374.02,11 437,11C450.84,11 464.55,11.58 478.1,12.71C512.08,20.61 544.7,32.08 575.54,46.69Z" style="fill:rgb(50,39,115);fill-rule:nonzero;"/>
                                <path d="M604,477C547.71,499.68 484.42,512 420,512C242.99,512 88,417.76 2.45,276.71C1.62,278.32 0.8,279.94 0,281.57L0,222L21.5,242.5L167,380L566.5,451.5L604,477Z" style="fill:rgb(71,54,175);fill-rule:nonzero;"/>
                                <path d="M835,627L0,627L0,280.5C0,278.5 0,274 0,272C85.55,413.05 241.49,511.001 418.5,511.001C482.92,511.001 546.21,498.68 602.5,476L835,627Z" style="fill:rgb(69,51,164);fill-rule:nonzero;"/>
                            </g>
                        </g>
                    </g>
                </g>
            </g>
            <g id="k8s_stars_rocket.svg" transform="matrix(1,0,0,1,991.832,587.868)">
                <g opacity="0.75">
                    <g transform="matrix(1,0,0,1,-883,-440)">
                        <g>
                            <path d="M1421.47,628.344C1421.47,628.344 1407.59,675.771 1417.24,693.861C1420.45,699.982 1466.97,742.207 1473.85,739.159C1485.28,733.997 1497.84,675.248 1497.84,675.248L1421.47,628.344Z" style="fill:rgb(174,25,110);fill-rule:nonzero;"/>
                            <path d="M1544.02,536.982C1544.02,536.982 1593.45,537.271 1608.14,551.665C1613.07,556.429 1640.19,613.098 1635.21,618.909C1627.02,628.36 1567.14,623.668 1567.14,623.668L1544.02,536.982Z" style="fill:rgb(220,35,140);fill-rule:nonzero;"/>
                            <path d="M1572.61,664.176C1570.26,661.018 1570.92,656.553 1574.07,654.203C1577.23,651.852 1581.7,652.506 1584.05,655.664L1613.64,695.421C1615.99,698.578 1615.34,703.044 1612.18,705.394C1609.03,707.745 1604.56,707.091 1602.21,703.933L1572.61,664.176Z" style="fill:rgb(239,180,20);fill-rule:nonzero;"/>
                            <path d="M1520.8,702.744C1518.45,699.587 1519.1,695.122 1522.26,692.771C1525.42,690.42 1529.88,691.074 1532.23,694.232L1572.34,748.107C1574.69,751.264 1574.04,755.729 1570.88,758.08C1567.72,760.431 1563.26,759.777 1560.9,756.619L1520.8,702.744Z" style="fill:rgb(239,138,20);fill-rule:nonzero;"/>
                            <path d="M1546.59,683.53C1544.24,680.373 1544.89,675.908 1548.05,673.557C1551.21,671.206 1555.67,671.86 1558.02,675.018L1615.38,752.07C1617.73,755.227 1617.08,759.693 1613.92,762.043C1610.76,764.394 1606.3,763.74 1603.95,760.582L1546.59,683.53Z" style="fill:rgb(239,138,20);fill-rule:nonzero;"/>
                            <path d="M1558.03,675.019L1615.35,751.869C1615.94,752.622 1616.37,753.483 1616.61,754.403C1616.86,755.323 1616.92,756.283 1616.8,757.227C1616.67,758.171 1616.36,759.08 1615.88,759.902C1615.39,760.724 1614.75,761.442 1613.99,762.014L1613.69,762.252L1548.47,673.337C1549.98,672.358 1551.81,671.987 1553.58,672.299C1555.36,672.611 1556.95,673.583 1558.03,675.019Z" style="fill:rgb(239,180,20);fill-rule:nonzero;"/>
                            <path d="M1507.18,680.024C1468.72,672.839 1421.37,639.222 1390.67,597.314C1358.25,553.055 1354.8,472.023 1359.79,438.221C1360.18,435.519 1361.11,432.922 1362.52,430.582C1363.92,428.242 1365.78,426.204 1367.98,424.588C1370.18,422.971 1372.68,421.808 1375.34,421.166C1377.99,420.523 1380.75,420.415 1383.44,420.846C1417.26,426.386 1493.53,454.108 1525.81,498.195C1556.49,540.06 1574.56,595.616 1569.69,634.352L1507.18,680.024Z" style="fill:white;fill-rule:nonzero;"/>
                            <path d="M1569.91,634.502L1507.41,680.502C1490.32,676.792 1473.45,669.961 1458.71,660.567L1565.41,582.502C1569.92,599.407 1571.53,617.08 1569.91,634.502Z" style="fill:rgb(68,74,158);fill-rule:nonzero;"/>
                            <path d="M1390.66,597.536C1421.36,639.444 1468.71,673.061 1507.17,680.246L1538.42,657.41L1367.97,424.81C1365.77,426.426 1363.91,428.464 1362.51,430.804C1361.1,433.145 1360.17,435.741 1359.78,438.443C1354.79,472.246 1358.24,553.277 1390.66,597.536Z" style="fill:rgb(52,57,136);fill-opacity:0.5;fill-rule:nonzero;"/>
                            <path d="M1458.91,660.5C1435.91,646.5 1422.41,639 1390.26,597.581C1357.84,553.322 1354.38,472.291 1359.38,438.488C1359.77,435.786 1360.7,433.19 1362.11,430.85C1363.51,428.509 1365.37,426.472 1367.57,424.855C1369.77,423.239 1372.27,422.076 1374.92,421.433C1377.58,420.791 1380.33,420.682 1383.03,421.114C1416.85,426.653 1493.12,454.376 1525.4,498.462C1540.91,517 1555.91,547 1565.41,582.5L1458.91,660.5Z" style="fill:white;fill-rule:nonzero;"/>
                            <path d="M1457.32,545.033C1440.17,558.542 1415.32,555.59 1401.81,538.439C1388.3,521.288 1391.25,496.433 1408.4,482.924C1425.56,469.415 1450.41,472.367 1463.92,489.518C1477.43,506.67 1474.48,531.524 1457.32,545.033Z" style="fill:rgb(68,74,158);fill-rule:nonzero;"/>
                            <path d="M1449.59,535.213C1437.86,544.45 1420.87,542.432 1411.63,530.704C1402.39,518.977 1404.41,501.982 1416.14,492.745C1427.87,483.508 1444.86,485.526 1454.1,497.254C1463.34,508.981 1461.32,525.976 1449.59,535.213Z" style="fill:rgb(0,195,255);fill-rule:nonzero;"/>
                            <path d="M1457.89,544.571C1440.73,558.08 1415.88,555.128 1402.37,537.977C1388.86,520.826 1391.81,495.971 1408.96,482.462L1457.89,544.571Z" style="fill:rgb(52,57,136);fill-opacity:0.1;fill-rule:nonzero;"/>
                        </g>
                        <path d="M202.936,121.611C202.432,121.496 201.713,121.3 201.219,121.21C199.342,120.953 197.452,120.803 195.558,120.759C191.979,120.528 188.432,119.952 184.966,119.041C183.896,118.445 183.015,117.567 182.419,116.506L180.035,115.819C182.584,97.403 178.207,78.702 167.736,63.265C168.346,62.718 169.501,61.706 169.828,61.409C169.746,60.206 170.144,59.019 170.936,58.102C173.656,55.791 176.598,53.747 179.719,52C181.408,51.151 183.047,50.206 184.626,49.169C185.006,48.89 185.527,48.447 185.926,48.131C186.627,47.689 187.227,47.106 187.686,46.42C188.145,45.734 188.453,44.96 188.59,44.148C188.727,43.337 188.69,42.506 188.482,41.71C188.273,40.913 187.897,40.169 187.379,39.525C186.861,38.882 186.211,38.353 185.473,37.974C184.735,37.594 183.924,37.373 183.094,37.323C182.263,37.274 181.431,37.397 180.652,37.686C179.873,37.975 179.164,38.422 178.571,39C178.168,39.314 177.62,39.726 177.262,40.033C175.882,41.318 174.579,42.681 173.359,44.115C170.945,46.739 168.279,49.124 165.398,51.238C164.263,51.694 163.022,51.827 161.816,51.622L159.568,53.209C146.637,39.79 129.219,31.468 110.55,29.789C110.496,29.013 110.429,27.607 110.408,27.182C109.405,26.494 108.714,25.447 108.481,24.263C108.356,20.718 108.58,17.171 109.15,13.669C109.526,11.836 109.794,9.983 109.954,8.118C109.973,7.648 109.945,6.965 109.945,6.457C110.028,5.64 109.937,4.816 109.677,4.036C109.418,3.257 108.997,2.54 108.44,1.931C107.883,1.323 107.204,0.837 106.445,0.504C105.686,0.171 104.866,-0 104.036,0C103.206,0 102.386,0.173 101.627,0.506C100.869,0.84 100.19,1.326 99.634,1.935C99.078,2.544 98.657,3.262 98.398,4.042C98.14,4.821 98.05,5.646 98.134,6.462C98.134,6.518 98.146,6.57 98.148,6.626C98.142,7.11 98.118,7.696 98.134,8.12C98.295,9.985 98.564,11.84 98.94,13.675C99.506,17.176 99.726,20.723 99.597,24.265C99.262,25.432 98.597,26.479 97.68,27.284L97.54,29.756C93.948,30.049 90.38,30.591 86.864,31.379C72.094,34.679 58.658,42.27 48.282,53.176C47.564,52.686 46.852,52.187 46.147,51.679C44.978,52.025 43.719,51.904 42.64,51.343C39.759,49.233 37.092,46.851 34.678,44.23C33.463,42.797 32.166,41.434 30.793,40.148C30.433,39.844 29.883,39.428 29.48,39.11C28.309,38.176 26.867,37.638 25.364,37.574C24.471,37.528 23.579,37.691 22.762,38.049C21.944,38.407 21.223,38.951 20.658,39.636C19.701,40.969 19.316,42.624 19.588,44.237C19.86,45.85 20.767,47.291 22.11,48.245L22.202,48.309C22.588,48.621 23.063,49.021 23.422,49.28C24.997,50.316 26.632,51.263 28.318,52.113C31.439,53.861 34.38,55.905 37.099,58.218C37.805,59.209 38.217,60.375 38.287,61.586L40.177,63.257C29.735,78.749 25.445,97.508 28.129,115.936L25.656,116.647C25.011,117.666 24.144,118.529 23.118,119.175C19.655,120.089 16.11,120.667 12.533,120.9C10.637,120.943 8.745,121.093 6.867,121.351C6.414,121.434 5.784,121.592 5.29,121.714L5.239,121.725L5.155,121.75C4.337,121.856 3.55,122.13 2.845,122.554C2.141,122.978 1.533,123.543 1.062,124.213C0.591,124.882 0.266,125.642 0.109,126.443C-0.049,127.244 -0.035,128.068 0.148,128.863C0.332,129.659 0.681,130.408 1.174,131.062C1.667,131.716 2.292,132.261 3.01,132.663C3.729,133.064 4.524,133.313 5.345,133.393C6.166,133.473 6.994,133.383 7.778,133.129L7.866,133.115C7.906,133.106 7.939,133.087 7.978,133.08C8.465,132.969 9.078,132.855 9.506,132.74C11.309,132.171 13.078,131.5 14.804,130.732C18.129,129.406 21.577,128.403 25.099,127.737C26.321,127.81 27.497,128.221 28.494,128.922L31.068,128.486C36.848,146.143 48.962,161.098 65.126,170.531L64.05,173.076C64.55,174.102 64.733,175.251 64.577,176.379C63.105,179.706 61.316,182.886 59.232,185.876C58.087,187.37 57.03,188.928 56.066,190.542C55.831,190.982 55.533,191.656 55.307,192.116C54.881,192.818 54.608,193.6 54.506,194.412C54.404,195.224 54.475,196.049 54.714,196.832C54.953,197.615 55.356,198.341 55.896,198.961C56.436,199.581 57.101,200.083 57.848,200.434C58.596,200.785 59.41,200.977 60.237,200.998C61.065,201.019 61.887,200.869 62.652,200.557C63.417,200.244 64.108,199.777 64.68,199.185C65.251,198.593 65.691,197.89 65.971,197.12L65.981,197.109L65.981,197.095C66.205,196.638 66.522,196.039 66.711,195.611C67.384,193.862 67.953,192.075 68.415,190.26C69.435,186.568 70.974,183.037 72.988,179.769C73.692,179.116 74.579,178.687 75.533,178.54L76.872,176.147C94.403,182.813 113.802,182.861 131.367,176.284C131.742,176.945 132.441,178.21 132.626,178.529C133.832,178.72 134.915,179.371 135.641,180.342C137.313,183.476 138.671,186.764 139.696,190.16C140.163,191.975 140.736,193.762 141.411,195.512C141.602,195.944 141.914,196.55 142.141,197.009C142.42,197.78 142.859,198.484 143.43,199.077C144.001,199.669 144.691,200.137 145.456,200.451C146.221,200.764 147.044,200.915 147.871,200.895C148.699,200.875 149.513,200.684 150.262,200.334C151.01,199.984 151.676,199.483 152.217,198.864C152.758,198.244 153.162,197.519 153.403,196.736C153.643,195.953 153.716,195.128 153.615,194.316C153.514,193.503 153.242,192.721 152.817,192.018C152.592,191.557 152.281,190.884 152.047,190.446C151.084,188.836 150.026,187.282 148.881,185.792C146.835,182.878 145.081,179.773 143.645,176.522C143.333,175.359 143.496,174.122 144.098,173.076C143.72,172.312 143.392,171.525 143.115,170.72C159.33,161.212 171.445,146.141 177.155,128.374C177.919,128.495 179.25,128.724 179.682,128.812C180.581,127.996 181.766,127.561 182.985,127.598C186.507,128.264 189.957,129.267 193.283,130.594C195.009,131.368 196.778,132.044 198.583,132.617C199.01,132.727 199.619,132.832 200.108,132.939C200.149,132.95 200.185,132.967 200.224,132.978L200.308,132.99C201.092,133.244 201.92,133.334 202.741,133.254C203.561,133.173 204.356,132.925 205.074,132.523C205.792,132.122 206.417,131.577 206.91,130.923C207.402,130.269 207.751,129.521 207.935,128.726C208.119,127.931 208.132,127.107 207.976,126.307C207.819,125.506 207.495,124.747 207.024,124.077C206.554,123.408 205.947,122.842 205.243,122.418C204.539,121.993 203.754,121.719 202.936,121.611ZM146.827,62.134L121.589,79.826L121.501,79.784C120.74,80.333 119.844,80.668 118.906,80.752C117.969,80.837 117.026,80.669 116.177,80.267C115.328,79.864 114.606,79.241 114.086,78.465C113.567,77.689 113.27,76.788 113.227,75.858L113.199,75.844L111.446,45.262C124.79,46.9 137.221,52.828 146.826,62.134L146.827,62.134ZM99.284,95.656L108.782,95.656L114.687,102.956L112.57,112.06L104.04,116.12L95.485,112.052L93.364,102.943L99.284,95.656ZM90.348,46.333C92.429,45.87 94.532,45.512 96.649,45.262L94.893,75.891L94.764,75.952C94.725,76.882 94.431,77.784 93.913,78.562C93.396,79.34 92.676,79.964 91.828,80.369C90.98,80.774 90.037,80.944 89.1,80.861C88.162,80.778 87.265,80.445 86.503,79.898L86.454,79.926L61.053,62.116C69.139,54.257 79.286,48.791 90.348,46.333ZM51.841,73.562L75.032,94.073L75.007,94.198C75.718,94.809 76.248,95.6 76.539,96.486C76.831,97.372 76.875,98.319 76.665,99.228C76.455,100.136 75.999,100.971 75.347,101.643C74.695,102.316 73.87,102.8 72.961,103.046L72.938,103.145L43.211,111.627C41.73,98.343 44.767,84.95 51.841,73.564L51.841,73.562ZM82.892,128.049L71.081,156.271C59.744,149.095 51.12,138.421 46.544,125.903L77.023,120.784L77.075,120.852C77.412,120.788 77.754,120.758 78.097,120.762C78.951,120.774 79.79,120.995 80.538,121.404C81.286,121.813 81.921,122.398 82.386,123.107C82.851,123.816 83.133,124.627 83.206,125.47C83.278,126.312 83.14,127.159 82.804,127.936L82.892,128.049ZM117.755,164.342C106.704,166.848 95.166,166.262 84.432,162.649L99.422,135.846L99.448,135.846C99.893,135.027 100.555,134.343 101.362,133.865C102.169,133.388 103.092,133.135 104.032,133.135C104.973,133.134 105.896,133.385 106.704,133.86C107.512,134.336 108.175,135.02 108.622,135.838L108.734,135.838L123.762,162.685C121.811,163.329 119.809,163.882 117.755,164.344L117.755,164.342ZM137.122,156.384L125.189,127.875L125.226,127.824C124.696,126.604 124.663,125.23 125.133,123.987C125.603,122.744 126.54,121.728 127.748,121.151C128.371,120.849 129.05,120.675 129.742,120.639C130.143,120.62 130.545,120.65 130.939,120.726L130.99,120.662L161.741,125.801C157.202,138.419 148.539,149.181 137.122,156.386L137.122,156.384ZM164.971,111.527L135.094,103.018L135.066,102.894C134.159,102.646 133.337,102.16 132.686,101.487C132.036,100.814 131.582,99.98 131.373,99.073C131.163,98.165 131.206,97.219 131.497,96.334C131.787,95.449 132.315,94.658 133.024,94.045L133.012,93.986L156.074,73.576C163.137,84.933 166.259,98.258 164.969,111.529L164.971,111.527Z" style="fill:rgb(48,34,120);fill-rule:nonzero;"/>
                        <path d="M111.673,269.922L118.409,262L121.524,272.159L129.525,279.053L119.526,282.016L112.729,289.937L109.614,279.839L101.613,272.885L111.673,269.922Z" style="fill:rgb(239,138,20);fill-rule:nonzero;"/>
                        <path d="M559.562,490.34L564.473,481.956L569,490.809L577.495,495.865L568.77,500.21L563.802,508.604L559.285,499.806L550.781,494.694L559.562,490.34Z" style="fill:rgb(239,138,20);fill-rule:nonzero;"/>
                        <path d="M678.03,782.813L675.815,773.362L685.217,776.708L694.882,774.583L691.536,783.701L693.718,793.196L684.362,789.885L674.65,791.976L678.03,782.813Z" style="fill:rgb(239,138,20);fill-rule:nonzero;"/>
                        <path d="M837.8,783.408L844.1,776L847.013,785.501L854.495,791.948L845.144,794.719L838.788,802.127L835.875,792.683L828.392,786.179L837.8,783.408Z" style="fill:rgb(239,138,20);fill-rule:nonzero;"/>
                        <path d="M380.338,492.077L386.106,479.902L393.437,491.591L405.789,497.556L394.26,504.608L388.417,516.804L381.106,505.191L368.734,499.15L380.338,492.077Z" style="fill:rgb(239,138,20);fill-rule:nonzero;"/>
                        <path d="M178.149,419.382L175.987,410.16L185.162,413.425L194.595,411.351L191.33,420.249L193.458,429.516L184.328,426.284L174.851,428.324L178.149,419.382Z" style="fill:rgb(239,138,20);fill-rule:nonzero;"/>
                        <path d="M182.851,501.687L181.522,496.017L187.163,498.024L192.963,496.749L190.955,502.22L192.264,507.918L186.65,505.931L180.823,507.186L182.851,501.687Z" style="fill:rgb(239,138,20);fill-rule:nonzero;"/>
                        <path d="M519.606,571.687L518.277,566.017L523.918,568.024L529.718,566.749L527.71,572.22L529.019,577.918L523.405,575.931L517.578,577.186L519.606,571.687Z" style="fill:rgb(239,138,20);fill-rule:nonzero;"/>
                        <path d="M1494.41,756C1170.41,905 904.154,847.129 830.41,819.5C658.642,755.145 421.204,536.917 434.988,467.021C448.771,397.125 508.04,418.225 508.04,418.225C508.04,418.225 545.255,432.732 541.12,473.615C538.087,503.606 531.472,527.685 379.854,527.685C198.8,527.685 58.7,385.255 94.537,227" style="fill:none;fill-rule:nonzero;stroke:white;stroke-width:7px;stroke-dasharray:12,26;"/>
                    </g>
                </g>
            </g>
        </g>
    </g>
    <defs>
        <linearGradient id="_Linear2" x1="0" y1="0" x2="1" y2="0" gradientUnits="userSpaceOnUse" gradientTransform="matrix(1106,1116,-1116,1106,865,248)"><stop offset="0" style="stop-color:rgb(28,24,64);stop-opacity:1"/><stop offset="1" style="stop-color:rgb(44,40,93);stop-opacity:1"/></linearGradient>
        <linearGradient id="_Linear4" x1="0" y1="0" x2="1" y2="0" gradientUnits="userSpaceOnUse" gradientTransform="matrix(2.45,0,0,2.45,1.23,277.099)"><stop offset="0" style="stop-color:rgb(161,140,209);stop-opacity:0.8"/><stop offset="1" style="stop-color:rgb(251,194,235);stop-opacity:0.8"/></linearGradient>
    </defs>
</svg>
